<?xml version="1.0" ?><svg data-name="Layer 1" id="Layer_1" viewBox="0 0 64 64" xmlns="http://www.w3.org/2000/svg"><defs><style>
      .cls-1 {
        fill: #e7ecef;
      }

      .cls-2 {
        fill: #8b8c89;
      }

      .cls-3 {
        fill: #bc6c25;
      }

      .cls-4 {
        fill: #a3cef1;
      }

      .cls-5 {
        fill: #dda15e;
      }

      .cls-6 {
        fill: #6096ba;
      }

      .cls-7 {
        fill: #274c77;
      }
    </style></defs><path class="cls-4" d="M28,32c0-1.66,3.13-3,7-3s7,1.34,7,3c0-1.66,3.13-3,7-3s7,1.34,7,3h1V12h-.62c-3.25,0-6.41,.8-9.39,2.1-1.27,.56-3.03,.9-4.99,.9s-3.72-.34-4.99-.9c-2.98-1.3-6.14-2.1-9.39-2.1h-.62v3.86l.07,.07c1.81,1.81,2.93,4.31,2.93,7.07v3.18c0,.48-.34,.89-.8,.98l-2.2,.44v.76c0,1.57-.91,3-2.34,3.64h3.34Z"/><path class="cls-5" d="M24.58,32.04l-3,1.29c-1.01,.43-2.15,.43-3.15,0l-3-1.29c-1.47-.63-2.42-2.08-2.42-3.68v-5.36c0-3.31,2.69-6,6-6h2c3.31,0,6,2.69,6,6v5.36c0,1.6-.95,3.05-2.42,3.68Z"/><path class="cls-7" d="M33.14,38c-1.82-1.85-4.35-3-7.14-3h-3c0,1.66-1.34,3-3,3s-3-1.34-3-3h-3c-5.52,0-10,4.48-10,10v7H26l4-14h3.14Z"/><path class="cls-5" d="M15,48h2c1.1,0,2,.9,2,2v2h-4v-4h0Z"/><path class="cls-7" d="M10,24.73c-.29,.17-.64,.27-1,.27-1.1,0-2-.9-2-2s.9-2,2-2c.42,0,.81,.13,1.14,.36"/><path class="cls-7" d="M30,24.73c.29,.17,.64,.27,1,.27,1.1,0,2-.9,2-2s-.9-2-2-2c-.42,0-.81,.13-1.14,.36"/><path class="cls-3" d="M17,32.71l1.42,.61c1.01,.44,2.15,.44,3.16,0l1.42-.61v2.29c0,1.66-1.34,3-3,3s-3-1.34-3-3v-2.29Z"/><polyline class="cls-2" points="26 52 30 38 52 38 48 52"/><path class="cls-7" d="M26.4,20.38h-.01c-.57-.23-1.23-.38-2.06-.38-4.33,0-4.33,4-8.67,4-1.13,0-1.97-.27-2.66-.67v-.33c0-3.31,2.69-6,6-6h2c2.37,0,4.42,1.38,5.39,3.38h.01Z"/><path class="cls-1" d="M27,27.6v-4.6c0-3.31-2.69-6-6-6h-2c-3.31,0-6,2.69-6,6v4h-2c-.55,0-1-.45-1-1v-3c0-5.52,4.48-10,10-10,2.76,0,5.26,1.12,7.07,2.93s2.93,4.31,2.93,7.07v3.18c0,.48-.34,.89-.8,.98l-2.2,.44Z"/><path class="cls-4" d="M39,44c.55,0,1,.45,1,1s-.45,1-1,1v-2Z"/><rect class="cls-7" height="18" width="4" x="57" y="14"/><path class="cls-6" d="M42,32c0-1.66,3.13-3,7-3s7,1.34,7,3"/><path class="cls-6" d="M28,32c0-1.66,3.13-3,7-3s7,1.34,7,3"/><path d="M61,13h-3v-1c0-.55-.45-1-1-1h-.62c-3.18,0-6.47,.73-9.79,2.19-1.19,.53-2.82,.81-4.59,.81s-3.39-.29-4.59-.82c-3.32-1.45-6.61-2.18-9.79-2.18h-.62c-.55,0-1,.45-1,1v1.79c-1.73-1.13-3.79-1.79-6-1.79-5.04,0-9.28,3.41-10.58,8.03-.14-.02-.28-.03-.42-.03-1.65,0-3,1.35-3,3s1.35,3,3,3c0,1.1,.9,2,2,2h1v.36c0,2,1.19,3.81,3.03,4.6l.97,.42v.63h-2c-6.07,0-11,4.93-11,11v6h-1v2H52v-2h-2.67l3.64-12.73c.09-.3,.03-.63-.16-.88-.19-.25-.49-.4-.8-.4h-18.47c-2.05-1.93-4.7-3-7.53-3h-2v-.63l.87-.37H61c.55,0,1-.45,1-1V14c0-.55-.45-1-1-1ZM9,23v1c-.55,0-1-.45-1-1s.45-1,1-1c.02,0,.03,0,.05,0-.03,.33-.05,.66-.05,.99Zm3,0v3h-1v-3c0-4.96,4.04-9,9-9s9,4.04,9,9v3.18l-1,.2v-3.38c0-3.86-3.14-7-7-7h-2c-3.86,0-7,3.14-7,7Zm11.99-3.98c-2.33,.1-3.57,1.23-4.67,2.24-1.05,.97-1.88,1.74-3.66,1.74-.61,0-1.14-.09-1.63-.28,.15-2.62,2.31-4.72,4.97-4.72h2c1.13,0,2.16,.39,2.99,1.02Zm-5.99,31.98h-2v-2h1c.55,0,1,.45,1,1v1Zm32.67-12l-3.43,12H27.33l3.43-12h19.92Zm-24.67-3c1.46,0,2.85,.35,4.11,1h-.11c-.45,0-.84,.3-.96,.73l-3.79,13.27h-5.25v-1c0-1.65-1.35-3-3-3h-6v-2.59l1.71-1.71-1.41-1.41-2,2c-.19,.19-.29,.44-.29,.71v4c0,.55,.45,1,1,1h4v2H5v-6c0-4.96,4.04-9,9-9h2.13c.44,1.72,2.01,3,3.87,3s3.43-1.28,3.87-3h2.13Zm-8-1v-.77h.03c.62,.28,1.3,.42,1.97,.42s1.34-.13,1.97-.4h.03s0,.76,0,.76c0,1.1-.9,2-2,2s-2-.9-2-2Zm8-8.22l-6.2,1.24,.39,1.96,5.77-1.15c-.16,1.01-.82,1.88-1.78,2.29h0s-3,1.29-3,1.29c-.75,.32-1.61,.32-2.36,0l-3-1.29c-1.1-.47-1.82-1.56-1.82-2.76v-3.56c.52,.13,1.07,.2,1.66,.2,2.56,0,3.87-1.2,5.02-2.27,1.05-.97,1.88-1.73,3.65-1.73,.49,0,.91,.08,1.32,.2,.22,.56,.35,1.16,.35,1.8v3.78Zm4.04,4.22c1.01-.53,2.72-1,4.96-1s3.95,.47,4.96,1h-9.92Zm10.96-1.73c-1.54-.84-3.78-1.27-6-1.27-3.12,0-6.26,.85-7.47,2.48,.3-.63,.46-1.33,.47-2.06l1.4-.28c.93-.19,1.61-1.01,1.61-1.96v-.18c1.65,0,3-1.35,3-3s-1.35-3-3-3c-.14,0-.28,.01-.42,.03-.49-1.73-1.38-3.28-2.58-4.56v-2.47c2.78,.06,5.68,.73,8.61,2.01,1.2,.53,2.74,.85,4.39,.94v13.31Zm-10.05-7.26s.03,0,.05,0c.55,0,1,.45,1,1s-.45,1-1,1v-1c0-.33-.02-.66-.05-.99Zm13.09,8.99c1.01-.53,2.72-1,4.96-1s3.95,.47,4.96,1h-9.92Zm11.96-1.04c-1.44-1.29-4.23-1.96-7-1.96-2.22,0-4.46,.43-6,1.27V15.96c1.66-.1,3.19-.41,4.39-.94,2.93-1.28,5.83-1.96,8.61-2.01V29.96Zm4,1.04h-2V15h2V31Z"/><rect height="2" width="4" x="48" y="18"/><rect height="2" width="8" x="46" y="23"/></svg>